<?xml version="1.0" encoding="UTF-8"?>
<svg version="1.1" viewBox="0 0 2037 2048" width="191" height="192" xmlns="http://www.w3.org/2000/svg">
<path transform="translate(0)" d="m0 0h2037v2048h-2037z"/>
<path transform="translate(1262,695)" d="m0 0h198l19 1 20 3 27 9 25 12 19 13 21 16 18 18 11 14 9 12 9 15 8 19 6 20 5 24 3 21 1 14v417l-3 10-5 5-7 4-9 2h-11l-10-3-9-9-5-10-1-9-1-431-3-19-9-21-8-15-8-12-11-13-11-10-18-13-24-13-18-7-13-3-25-3-91-1h-87l-31 3-16 3-15 6-12 5-20 11-13 9-10 9-4 2-2 4-12 15-5 7-10 21-5 16-4 25-2 25-1 319v74l-1 15-5 15-5 4-11 4-4 1h-9l-13-4-7-8-5-16v-207l1-202 2-21 4-32 4-13 9-22 10-21 12-18 13-15 13-13 8-7 13-11 15-11 14-8 23-10 17-6 28-4z" fill="#FEFEFE"/>
<path transform="translate(411,992)" d="m0 0h522l18 1 8 4 6 5 6 12v10l-2 9-4 6-8 7-10 5-143 1h-125l-230-1h-61l-12-6-6-7-5-12v-11l5-12 6-8 4-2z" fill="#FEFEFE"/>
<path transform="translate(393,1291)" d="m0 0h540l18 1 10 5 6 7 4 10v8l-3 9-10 10-10 5-473 1h-81l-13-3-6-4-6-7-4-9v-10l5-12 7-8 3-2z" fill="#FEFEFE"/>
<path transform="translate(386,695)" d="m0 0h561l10 5 10 9 3 5 1 9-3 13-7 8-11 7-4 1h-27l-198-2h-117l-50 1-9 1h-157l-10-5-8-8-5-12v-10l5-10 7-8 5-3z" fill="#FEFEFE"/>
<path transform="translate(381,749)" d="m0 0 7 2h157l9-1 50-1h123l112 1 80 1h27l6-1-3 3-2 1-13 1h-537l-10-2-6-3z" fill="#816E57"/>
<path transform="translate(1102,770)" d="m0 0v3l-10 12-11 18-10 21-10 26-3 21-3 23-1 14-1 202v207l4 13-1 3-5-13-1-5v-412l4-22 3-25 4-13 10-25 10-21 7-11 11-13z" fill="#816E57"/>
<path transform="translate(440,693)" d="m0 0h486l22 1 2 2h-358l-206-1v-1z" fill="#816E57"/>
<path transform="translate(449,1050)" d="m0 0 230 1h125l146-1-4 3h-554l-4-2z" fill="#816E57"/>
<path transform="translate(1126,841)" d="m0 0 1 3-6 16-3 15-2 20-1 22-1 239v155l-2 12-3 8-1-4 2-6 1-15v-86l1-307 2-25 4-25 6-18z" fill="#816E57"/>
<path transform="translate(1274,751)" d="m0 0h87l91 1 30 4 8 2-4 1-25-3h-192l-33 2-10 2-13 5-3-1 14-6 12-3 24-3z" fill="#816E57"/>
<path transform="translate(1268,693)" d="m0 0h182l33 2 17 3 3 2-24-3-19-1h-198l-24 1-28 4-19 7-3-1 19-8 14-3 22-2z" fill="#816E57"/>
<path transform="translate(1012,1013)" d="m0 0 6 1 4 4-1 6-5 4-7-1-5-5 1-5 4-3z" fill="#FEFEFE"/>
</svg>
